STARTFONT 2.1
FONT -Monotype-Gill Sans-Bold-I-Normal--12-120-72-72-P-60-ISO8859-1
SIZE 12 72 72
FONTBOUNDINGBOX 17 16 -4 -3

STARTPROPERTIES 22
FOUNDRY "Monotype"
FAMILY_NAME "Gill Sans"
WEIGHT_NAME "Bold"
SLANT "I"
SETWIDTH_NAME "Normal"
ADD_STYLE_NAME ""
PIXEL_SIZE 12
POINT_SIZE 120
RESOLUTION_X 72
RESOLUTION_Y 72
SPACING "P"
AVERAGE_WIDTH 60
CHARSET_REGISTRY "ISO8859"
CHARSET_ENCODING "1"
FULL_NAME "GillSans-BoldItalic"
COPYRIGHT "Copyright (c) 1991 The Monotype Corporation plc."
WEIGHT 10
X_HEIGHT 6
QUAD_WIDTH 7
DEFAULT_CHAR 32
FONT_DESCENT 3
FONT_ASCENT 11
ENDPROPERTIES

CHARS 190

STARTCHAR space
ENCODING 32
SWIDTH 278 0
DWIDTH 3 0
BBX 1 1 0 0
BITMAP
00
ENDCHAR

STARTCHAR exclam
ENCODING 33
SWIDTH 260 0
DWIDTH 3 0
BBX 3 9 0 0
BITMAP
60
60
40
40
40
40
00
00
C0
ENDCHAR

STARTCHAR quotedbl
ENCODING 34
SWIDTH 479 0
DWIDTH 6 0
BBX 4 2 1 7
BITMAP
D0
D0
ENDCHAR

STARTCHAR numbersign
ENCODING 35
SWIDTH 584 0
DWIDTH 8 0
BBX 7 9 0 0
BITMAP
36
36
26
FE
6C
6C
FE
CC
D8
ENDCHAR

STARTCHAR dollar
ENCODING 36
SWIDTH 490 0
DWIDTH 6 0
BBX 6 10 0 -1
BITMAP
70
5C
70
70
38
28
A8
F8
20
20
ENDCHAR

STARTCHAR percent
ENCODING 37
SWIDTH 719 0
DWIDTH 9 0
BBX 8 9 0 0
BITMAP
63
96
94
68
18
16
29
69
C6
ENDCHAR

STARTCHAR ampersand
ENCODING 38
SWIDTH 729 0
DWIDTH 9 0
BBX 8 9 0 0
BITMAP
0E
1B
1B
3E
7C
DB
CA
CE
7B
ENDCHAR

STARTCHAR quoteright
ENCODING 39
SWIDTH 260 0
DWIDTH 3 0
BBX 3 2 1 7
BITMAP
60
C0
ENDCHAR

STARTCHAR parenleft
ENCODING 40
SWIDTH 344 0
DWIDTH 4 0
BBX 4 12 1 -3
BITMAP
30
60
60
40
C0
C0
C0
C0
C0
C0
C0
60
ENDCHAR

STARTCHAR parenright
ENCODING 41
SWIDTH 344 0
DWIDTH 4 0
BBX 4 12 0 -3
BITMAP
60
30
30
30
30
30
30
30
20
60
60
C0
ENDCHAR

STARTCHAR asterisk
ENCODING 42
SWIDTH 479 0
DWIDTH 6 0
BBX 5 5 1 3
BITMAP
28
F8
70
A8
20
ENDCHAR

STARTCHAR plus
ENCODING 43
SWIDTH 584 0
DWIDTH 7 0
BBX 6 6 1 1
BITMAP
30
30
FC
FC
30
30
ENDCHAR

STARTCHAR comma
ENCODING 44
SWIDTH 260 0
DWIDTH 3 0
BBX 3 2 0 -2
BITMAP
60
C0
ENDCHAR

STARTCHAR minus
ENCODING 45
SWIDTH 584 0
DWIDTH 7 0
BBX 6 2 0 3
BITMAP
FC
FC
ENDCHAR

STARTCHAR period
ENCODING 46
SWIDTH 260 0
DWIDTH 3 0
BBX 2 2 0 0
BITMAP
C0
C0
ENDCHAR

STARTCHAR slash
ENCODING 47
SWIDTH 281 0
DWIDTH 3 0
BBX 4 12 0 -3
BITMAP
30
30
20
20
60
60
60
40
40
C0
C0
80
ENDCHAR

STARTCHAR zero
ENCODING 48
SWIDTH 531 0
DWIDTH 6 0
BBX 5 9 1 0
BITMAP
38
68
48
C8
C8
C8
D8
D0
60
ENDCHAR

STARTCHAR one
ENCODING 49
SWIDTH 531 0
DWIDTH 6 0
BBX 3 9 2 0
BITMAP
60
60
60
60
C0
C0
C0
C0
C0
ENDCHAR

STARTCHAR two
ENCODING 50
SWIDTH 531 0
DWIDTH 6 0
BBX 5 9 0 0
BITMAP
70
58
18
18
18
30
70
60
F8
ENDCHAR

STARTCHAR three
ENCODING 51
SWIDTH 531 0
DWIDTH 6 0
BBX 6 9 0 0
BITMAP
78
48
0C
18
70
18
18
98
F0
ENDCHAR

STARTCHAR four
ENCODING 52
SWIDTH 531 0
DWIDTH 6 0
BBX 6 9 0 0
BITMAP
08
18
38
38
58
D8
FC
10
10
ENDCHAR

STARTCHAR five
ENCODING 53
SWIDTH 531 0
DWIDTH 6 0
BBX 6 9 0 0
BITMAP
7C
60
60
78
78
18
08
98
F0
ENDCHAR

STARTCHAR six
ENCODING 54
SWIDTH 531 0
DWIDTH 6 0
BBX 5 9 1 0
BITMAP
38
30
60
78
C8
C8
C8
D8
70
ENDCHAR

STARTCHAR seven
ENCODING 55
SWIDTH 531 0
DWIDTH 6 0
BBX 5 9 1 0
BITMAP
F8
38
30
30
70
60
60
E0
C0
ENDCHAR

STARTCHAR eight
ENCODING 56
SWIDTH 531 0
DWIDTH 6 0
BBX 6 9 0 0
BITMAP
38
68
4C
68
70
D8
C8
D8
70
ENDCHAR

STARTCHAR nine
ENCODING 57
SWIDTH 531 0
DWIDTH 6 0
BBX 5 9 1 0
BITMAP
70
48
C8
C8
D8
78
30
70
E0
ENDCHAR

STARTCHAR colon
ENCODING 58
SWIDTH 260 0
DWIDTH 3 0
BBX 2 6 0 0
BITMAP
40
40
00
00
C0
C0
ENDCHAR

STARTCHAR semicolon
ENCODING 59
SWIDTH 260 0
DWIDTH 3 0
BBX 4 7 0 -1
BITMAP
30
30
00
00
60
60
C0
ENDCHAR

STARTCHAR less
ENCODING 60
SWIDTH 584 0
DWIDTH 7 0
BBX 6 8 1 1
BITMAP
04
1C
78
E0
E0
78
1C
04
ENDCHAR

STARTCHAR equal
ENCODING 61
SWIDTH 584 0
DWIDTH 7 0
BBX 6 5 0 2
BITMAP
FC
FC
00
FC
FC
ENDCHAR

STARTCHAR greater
ENCODING 62
SWIDTH 584 0
DWIDTH 7 0
BBX 6 8 1 1
BITMAP
80
E0
78
1C
1C
78
E0
80
ENDCHAR

STARTCHAR question
ENCODING 63
SWIDTH 323 0
DWIDTH 4 0
BBX 4 9 0 0
BITMAP
E0
B0
30
70
60
C0
00
00
C0
ENDCHAR

STARTCHAR at
ENCODING 64
SWIDTH 979 0
DWIDTH 12 0
BBX 12 12 0 -3
BITMAP
0F80
30E0
67E0
6DB0
D9B0
D930
D930
DB60
CFD0
6020
3040
0F80
ENDCHAR

STARTCHAR A
ENCODING 65
SWIDTH 625 0
DWIDTH 8 0
BBX 7 9 0 0
BITMAP
0C
1C
1C
36
36
76
7E
E6
C6
ENDCHAR

STARTCHAR B
ENCODING 66
SWIDTH 635 0
DWIDTH 8 0
BBX 7 9 0 0
BITMAP
7C
64
66
64
FC
C6
C6
C6
FC
ENDCHAR

STARTCHAR C
ENCODING 67
SWIDTH 688 0
DWIDTH 8 0
BBX 8 9 1 0
BITMAP
1F
70
60
C0
C0
C0
C0
62
3E
ENDCHAR

STARTCHAR D
ENCODING 68
SWIDTH 750 0
DWIDTH 9 0
BBX 8 9 0 0
BITMAP
7C
66
63
63
C3
C3
C3
CE
FE
ENDCHAR

STARTCHAR E
ENCODING 69
SWIDTH 583 0
DWIDTH 7 0
BBX 6 9 1 0
BITMAP
7C
60
60
60
F8
C0
C0
C0
FC
ENDCHAR

STARTCHAR F
ENCODING 70
SWIDTH 490 0
DWIDTH 6 0
BBX 6 9 0 0
BITMAP
7C
60
60
60
F8
C0
C0
C0
C0
ENDCHAR

STARTCHAR G
ENCODING 71
SWIDTH 740 0
DWIDTH 9 0
BBX 8 9 1 0
BITMAP
1F
30
60
C0
CF
C3
C3
62
3E
ENDCHAR

STARTCHAR H
ENCODING 72
SWIDTH 792 0
DWIDTH 10 0
BBX 9 9 0 0
BITMAP
6180
6180
6180
7F00
C300
C300
C300
C300
C300
ENDCHAR

STARTCHAR I
ENCODING 73
SWIDTH 302 0
DWIDTH 4 0
BBX 3 9 1 0
BITMAP
60
60
60
60
C0
C0
C0
C0
C0
ENDCHAR

STARTCHAR J
ENCODING 74
SWIDTH 302 0
DWIDTH 4 0
BBX 5 12 0 -3
BITMAP
18
30
30
30
30
30
30
30
30
60
60
C0
ENDCHAR

STARTCHAR K
ENCODING 75
SWIDTH 646 0
DWIDTH 8 0
BBX 8 9 1 0
BITMAP
67
6E
7C
78
D8
D8
CC
CE
C7
ENDCHAR

STARTCHAR L
ENCODING 76
SWIDTH 531 0
DWIDTH 6 0
BBX 6 9 0 0
BITMAP
60
60
60
60
C0
C0
C0
C0
FC
ENDCHAR

STARTCHAR M
ENCODING 77
SWIDTH 948 0
DWIDTH 11 0
BBX 11 9 0 0
BITMAP
38E0
38E0
39E0
7DE0
6F60
6F60
6E60
CE60
C460
ENDCHAR

STARTCHAR N
ENCODING 78
SWIDTH 781 0
DWIDTH 9 0
BBX 9 9 0 0
BITMAP
6180
7180
7180
7B00
DF00
CF00
CF00
C700
C700
ENDCHAR

STARTCHAR O
ENCODING 79
SWIDTH 833 0
DWIDTH 10 0
BBX 9 9 1 0
BITMAP
1E00
6300
4180
C180
C180
C180
C300
6300
3C00
ENDCHAR

STARTCHAR P
ENCODING 80
SWIDTH 583 0
DWIDTH 7 0
BBX 7 9 0 0
BITMAP
7C
64
66
64
FC
C0
C0
C0
C0
ENDCHAR

STARTCHAR Q
ENCODING 81
SWIDTH 833 0
DWIDTH 10 0
BBX 9 12 1 -3
BITMAP
1E00
6300
6100
C180
C180
C180
C180
4300
2600
1C00
0C00
0700
ENDCHAR

STARTCHAR R
ENCODING 82
SWIDTH 646 0
DWIDTH 8 0
BBX 7 9 0 0
BITMAP
7C
66
66
66
FC
DC
CC
CE
C6
ENDCHAR

STARTCHAR S
ENCODING 83
SWIDTH 521 0
DWIDTH 6 0
BBX 6 9 0 0
BITMAP
3C
64
60
70
38
18
0C
88
F0
ENDCHAR

STARTCHAR T
ENCODING 84
SWIDTH 619 0
DWIDTH 7 0
BBX 7 9 1 0
BITMAP
FE
30
30
30
30
30
30
30
30
ENDCHAR

STARTCHAR U
ENCODING 85
SWIDTH 750 0
DWIDTH 9 0
BBX 8 9 1 0
BITMAP
63
C3
C3
C3
C3
C3
C6
C6
7C
ENDCHAR

STARTCHAR V
ENCODING 86
SWIDTH 552 0
DWIDTH 7 0
BBX 7 9 1 0
BITMAP
CE
CC
CC
D8
78
70
70
70
60
ENDCHAR

STARTCHAR W
ENCODING 87
SWIDTH 948 0
DWIDTH 11 0
BBX 11 9 1 0
BITMAP
C460
CE60
CEC0
DEC0
7F80
7780
7380
6300
6300
ENDCHAR

STARTCHAR X
ENCODING 88
SWIDTH 677 0
DWIDTH 8 0
BBX 10 9 0 0
BITMAP
71C0
3300
3F00
1E00
1C00
1C00
3600
7700
E300
ENDCHAR

STARTCHAR Y
ENCODING 89
SWIDTH 563 0
DWIDTH 7 0
BBX 7 9 1 0
BITMAP
CE
CC
78
78
70
30
60
60
60
ENDCHAR

STARTCHAR Z
ENCODING 90
SWIDTH 635 0
DWIDTH 8 0
BBX 9 9 0 0
BITMAP
3F80
0700
0600
0C00
1C00
3800
3000
7000
FE00
ENDCHAR

STARTCHAR bracketleft
ENCODING 91
SWIDTH 375 0
DWIDTH 5 0
BBX 5 12 0 -3
BITMAP
78
60
60
60
60
60
E0
C0
C0
C0
C0
E0
ENDCHAR

STARTCHAR backslash
ENCODING 92
SWIDTH 281 0
DWIDTH 3 0
BBX 3 9 1 0
BITMAP
C0
C0
C0
C0
C0
40
40
40
60
ENDCHAR

STARTCHAR bracketright
ENCODING 93
SWIDTH 375 0
DWIDTH 5 0
BBX 5 12 0 -3
BITMAP
78
18
18
30
30
30
30
30
30
30
30
E0
ENDCHAR

STARTCHAR asciicircum
ENCODING 94
SWIDTH 583 0
DWIDTH 7 0
BBX 6 5 1 4
BITMAP
30
70
78
F8
DC
ENDCHAR

STARTCHAR underscore
ENCODING 95
SWIDTH 500 0
DWIDTH 7 0
BBX 7 1 0 -3
BITMAP
FE
ENDCHAR

STARTCHAR quoteleft
ENCODING 96
SWIDTH 260 0
DWIDTH 3 0
BBX 3 2 1 7
BITMAP
60
C0
ENDCHAR

STARTCHAR a
ENCODING 97
SWIDTH 552 0
DWIDTH 7 0
BBX 6 6 0 0
BITMAP
3C
4C
CC
CC
D8
78
ENDCHAR

STARTCHAR b
ENCODING 98
SWIDTH 542 0
DWIDTH 7 0
BBX 6 9 0 0
BITMAP
60
60
60
F8
CC
CC
CC
C8
F0
ENDCHAR

STARTCHAR c
ENCODING 99
SWIDTH 469 0
DWIDTH 6 0
BBX 5 6 0 0
BITMAP
38
40
C0
C0
C8
70
ENDCHAR

STARTCHAR d
ENCODING 100
SWIDTH 542 0
DWIDTH 7 0
BBX 6 9 0 0
BITMAP
0C
0C
0C
3C
CC
CC
C8
D8
78
ENDCHAR

STARTCHAR e
ENCODING 101
SWIDTH 510 0
DWIDTH 6 0
BBX 5 6 0 0
BITMAP
78
C8
F8
C0
C8
78
ENDCHAR

STARTCHAR f
ENCODING 102
SWIDTH 333 0
DWIDTH 4 0
BBX 5 12 0 -3
BITMAP
38
20
60
F0
60
60
60
E0
C0
C0
C0
C0
ENDCHAR

STARTCHAR g
ENCODING 103
SWIDTH 490 0
DWIDTH 6 0
BBX 6 9 0 -3
BITMAP
3C
48
48
78
40
78
78
88
78
ENDCHAR

STARTCHAR h
ENCODING 104
SWIDTH 552 0
DWIDTH 7 0
BBX 6 9 0 0
BITMAP
60
60
60
F8
CC
CC
CC
DC
D8
ENDCHAR

STARTCHAR i
ENCODING 105
SWIDTH 260 0
DWIDTH 3 0
BBX 3 9 0 0
BITMAP
60
00
00
E0
C0
C0
C0
C0
C0
ENDCHAR

STARTCHAR j
ENCODING 106
SWIDTH 260 0
DWIDTH 3 0
BBX 4 12 0 -3
BITMAP
30
00
00
30
70
60
60
60
60
60
60
C0
ENDCHAR

STARTCHAR k
ENCODING 107
SWIDTH 509 0
DWIDTH 6 0
BBX 6 9 0 0
BITMAP
60
60
60
FC
F8
F0
F8
D8
DC
ENDCHAR

STARTCHAR l
ENCODING 108
SWIDTH 260 0
DWIDTH 3 0
BBX 3 9 0 0
BITMAP
60
60
60
E0
C0
C0
C0
C0
C0
ENDCHAR

STARTCHAR m
ENCODING 109
SWIDTH 823 0
DWIDTH 10 0
BBX 9 6 0 0
BITMAP
DB80
ED80
CD80
CD80
D980
D980
ENDCHAR

STARTCHAR n
ENCODING 110
SWIDTH 552 0
DWIDTH 7 0
BBX 6 6 0 0
BITMAP
D8
EC
CC
CC
DC
D8
ENDCHAR

STARTCHAR o
ENCODING 111
SWIDTH 563 0
DWIDTH 7 0
BBX 6 6 0 0
BITMAP
78
CC
CC
CC
C8
70
ENDCHAR

STARTCHAR p
ENCODING 112
SWIDTH 583 0
DWIDTH 7 0
BBX 7 10 0 -3
BITMAP
20
3C
64
E6
64
6C
78
60
C0
C0
ENDCHAR

STARTCHAR q
ENCODING 113
SWIDTH 552 0
DWIDTH 7 0
BBX 6 9 0 -3
BITMAP
3C
CC
CC
CC
D8
78
18
18
18
ENDCHAR

STARTCHAR r
ENCODING 114
SWIDTH 365 0
DWIDTH 4 0
BBX 4 6 0 0
BITMAP
50
70
D0
C0
C0
C0
ENDCHAR

STARTCHAR s
ENCODING 115
SWIDTH 375 0
DWIDTH 5 0
BBX 4 6 0 0
BITMAP
70
C0
60
70
30
E0
ENDCHAR

STARTCHAR t
ENCODING 116
SWIDTH 365 0
DWIDTH 4 0
BBX 4 7 0 0
BITMAP
60
F0
60
60
40
40
70
ENDCHAR

STARTCHAR u
ENCODING 117
SWIDTH 552 0
DWIDTH 7 0
BBX 6 6 1 0
BITMAP
CC
CC
DC
D8
D8
F8
ENDCHAR

STARTCHAR v
ENCODING 118
SWIDTH 458 0
DWIDTH 5 0
BBX 6 6 0 0
BITMAP
DC
D8
F0
70
60
60
ENDCHAR

STARTCHAR w
ENCODING 119
SWIDTH 729 0
DWIDTH 9 0
BBX 9 6 0 0
BITMAP
CB80
DB00
FF00
7E00
6E00
6C00
ENDCHAR

STARTCHAR x
ENCODING 120
SWIDTH 531 0
DWIDTH 6 0
BBX 7 6 0 0
BITMAP
6E
3C
38
38
7C
EC
ENDCHAR

STARTCHAR y
ENCODING 121
SWIDTH 490 0
DWIDTH 6 0
BBX 6 9 0 -3
BITMAP
CC
D8
78
78
70
70
60
60
C0
ENDCHAR

STARTCHAR z
ENCODING 122
SWIDTH 458 0
DWIDTH 5 0
BBX 5 6 0 0
BITMAP
78
38
30
70
60
F8
ENDCHAR

STARTCHAR braceleft
ENCODING 123
SWIDTH 385 0
DWIDTH 5 0
BBX 4 12 0 -3
BITMAP
30
60
60
60
60
40
40
E0
60
60
60
70
ENDCHAR

STARTCHAR bar
ENCODING 124
SWIDTH 281 0
DWIDTH 3 0
BBX 4 12 0 -3
BITMAP
30
30
20
60
60
60
60
40
C0
C0
C0
C0
ENDCHAR

STARTCHAR braceright
ENCODING 125
SWIDTH 385 0
DWIDTH 5 0
BBX 4 12 0 -3
BITMAP
C0
60
60
60
60
20
20
70
60
60
60
E0
ENDCHAR

STARTCHAR asciitilde
ENCODING 126
SWIDTH 584 0
DWIDTH 7 0
BBX 6 2 1 4
BITMAP
F4
9C
ENDCHAR

STARTCHAR exclamdown
ENCODING 161
SWIDTH 260 0
DWIDTH 3 0
BBX 3 9 0 -3
BITMAP
60
00
00
40
40
C0
C0
C0
C0
ENDCHAR

STARTCHAR cent
ENCODING 162
SWIDTH 469 0
DWIDTH 6 0
BBX 5 12 0 -3
BITMAP
08
08
08
38
50
D0
D0
E0
78
20
60
40
ENDCHAR

STARTCHAR sterling
ENCODING 163
SWIDTH 542 0
DWIDTH 7 0
BBX 6 9 1 0
BITMAP
1C
30
30
60
60
F0
60
C0
FC
ENDCHAR

STARTCHAR currency
ENCODING 164
SWIDTH 552 0
DWIDTH 7 0
BBX 6 5 0 1
BITMAP
FC
CC
CC
CC
FC
ENDCHAR

STARTCHAR yen
ENCODING 165
SWIDTH 552 0
DWIDTH 7 0
BBX 8 9 0 0
BITMAP
67
66
3C
3C
FE
30
FC
30
30
ENDCHAR

STARTCHAR brokenbar
ENCODING 166
SWIDTH 281 0
DWIDTH 3 0
BBX 4 12 0 -3
BITMAP
30
30
20
60
00
00
60
C0
C0
C0
C0
C0
ENDCHAR

STARTCHAR section
ENCODING 167
SWIDTH 552 0
DWIDTH 7 0
BBX 6 12 0 -3
BITMAP
3C
6C
70
38
5C
CC
CC
68
30
18
98
F0
ENDCHAR

STARTCHAR dieresis
ENCODING 168
SWIDTH 333 0
DWIDTH 4 0
BBX 3 1 1 8
BITMAP
A0
ENDCHAR

STARTCHAR copyright
ENCODING 169
SWIDTH 740 0
DWIDTH 9 0
BBX 9 9 0 0
BITMAP
3E00
6300
D980
A480
A080
A480
D980
6300
3E00
ENDCHAR

STARTCHAR ordfeminine
ENCODING 170
SWIDTH 365 0
DWIDTH 4 0
BBX 4 4 1 5
BITMAP
70
B0
B0
F0
ENDCHAR

STARTCHAR guillemotleft
ENCODING 171
SWIDTH 542 0
DWIDTH 7 0
BBX 7 6 0 0
BITMAP
6C
66
26
76
6C
DC
ENDCHAR

STARTCHAR logicalnot
ENCODING 172
SWIDTH 584 0
DWIDTH 7 0
BBX 7 5 0 1
BITMAP
FE
FE
06
06
06
ENDCHAR

STARTCHAR hyphen
ENCODING 173
SWIDTH 344 0
DWIDTH 4 0
BBX 4 2 0 2
BITMAP
F0
F0
ENDCHAR

STARTCHAR registered
ENCODING 174
SWIDTH 740 0
DWIDTH 9 0
BBX 10 9 0 0
BITMAP
1E00
6180
5E80
9240
9E40
9640
5280
6180
1E00
ENDCHAR

STARTCHAR macron
ENCODING 175
SWIDTH 333 0
DWIDTH 4 0
BBX 5 1 2 8
BITMAP
F8
ENDCHAR

STARTCHAR degree
ENCODING 176
SWIDTH 396 0
DWIDTH 5 0
BBX 4 4 0 5
BITMAP
60
90
90
60
ENDCHAR

STARTCHAR plusminus
ENCODING 177
SWIDTH 584 0
DWIDTH 7 0
BBX 6 9 1 0
BITMAP
30
30
FC
FC
30
30
30
FC
FC
ENDCHAR

STARTCHAR twosuperior
ENCODING 178
SWIDTH 323 0
DWIDTH 4 0
BBX 3 5 -3 4
BITMAP
60
20
20
40
E0
ENDCHAR

STARTCHAR threesuperior
ENCODING 179
SWIDTH 323 0
DWIDTH 4 0
BBX 3 5 -3 4
BITMAP
60
20
60
20
E0
ENDCHAR

STARTCHAR acute
ENCODING 180
SWIDTH 333 0
DWIDTH 4 0
BBX 3 2 1 7
BITMAP
60
80
ENDCHAR

STARTCHAR mu
ENCODING 181
SWIDTH 615 0
DWIDTH 7 0
BBX 8 9 0 -3
BITMAP
63
66
66
66
6E
D4
C0
C0
C0
ENDCHAR

STARTCHAR paragraph
ENCODING 182
SWIDTH 552 0
DWIDTH 7 0
BBX 7 12 0 -3
BITMAP
7E
EC
EC
EC
6C
6C
6C
6C
6C
6C
6C
6C
ENDCHAR

STARTCHAR periodcentered
ENCODING 183
SWIDTH 260 0
DWIDTH 3 0
BBX 1 1 1 3
BITMAP
80
ENDCHAR

STARTCHAR cedilla
ENCODING 184
SWIDTH 333 0
DWIDTH 4 0
BBX 2 3 1 -3
BITMAP
40
40
C0
ENDCHAR

STARTCHAR onesuperior
ENCODING 185
SWIDTH 323 0
DWIDTH 4 0
BBX 2 5 -4 4
BITMAP
40
80
80
80
80
ENDCHAR

STARTCHAR ordmasculine
ENCODING 186
SWIDTH 375 0
DWIDTH 5 0
BBX 4 3 1 6
BITMAP
70
90
E0
ENDCHAR

STARTCHAR guillemotright
ENCODING 187
SWIDTH 542 0
DWIDTH 7 0
BBX 7 6 0 0
BITMAP
7E
EC
D8
D8
D8
EC
ENDCHAR

STARTCHAR onequarter
ENCODING 188
SWIDTH 844 0
DWIDTH 10 0
BBX 8 9 3 0
BITMAP
43
82
84
8C
89
13
37
27
63
ENDCHAR

STARTCHAR onehalf
ENCODING 189
SWIDTH 844 0
DWIDTH 10 0
BBX 8 9 3 0
BITMAP
43
82
84
8C
8B
11
31
22
67
ENDCHAR

STARTCHAR threequarters
ENCODING 190
SWIDTH 844 0
DWIDTH 10 0
BBX 9 9 4 0
BITMAP
6180
2100
6200
2600
E480
0980
1B80
1380
3180
ENDCHAR

STARTCHAR questiondown
ENCODING 191
SWIDTH 323 0
DWIDTH 4 0
BBX 4 9 0 -3
BITMAP
30
00
00
30
60
E0
C0
D0
70
ENDCHAR

STARTCHAR Agrave
ENCODING 192
SWIDTH 625 0
DWIDTH 8 0
BBX 7 12 0 0
BITMAP
18
04
00
0C
1C
1C
36
36
76
7E
E6
C6
ENDCHAR

STARTCHAR Aacute
ENCODING 193
SWIDTH 625 0
DWIDTH 8 0
BBX 7 12 0 0
BITMAP
06
08
00
0C
1C
1C
36
36
76
7E
E6
C6
ENDCHAR

STARTCHAR Acircumflex
ENCODING 194
SWIDTH 625 0
DWIDTH 8 0
BBX 7 12 0 0
BITMAP
0C
1A
00
0C
1C
1C
36
36
76
7E
E6
C6
ENDCHAR

STARTCHAR Atilde
ENCODING 195
SWIDTH 625 0
DWIDTH 8 0
BBX 7 11 0 0
BITMAP
1E
00
0C
1C
1C
36
36
76
7E
E6
C6
ENDCHAR

STARTCHAR Adieresis
ENCODING 196
SWIDTH 625 0
DWIDTH 8 0
BBX 7 11 0 0
BITMAP
14
00
0C
1C
1C
36
36
76
7E
E6
C6
ENDCHAR

STARTCHAR Aring
ENCODING 197
SWIDTH 625 0
DWIDTH 8 0
BBX 7 13 0 0
BITMAP
0E
0A
0E
00
0C
1C
1C
36
36
76
7E
E6
C6
ENDCHAR

STARTCHAR AE
ENCODING 198
SWIDTH 990 0
DWIDTH 12 0
BBX 12 9 0 0
BITMAP
07F0
0D80
0D80
1B00
1BF0
3300
7F00
6300
C3F0
ENDCHAR

STARTCHAR Ccedilla
ENCODING 199
SWIDTH 688 0
DWIDTH 8 0
BBX 8 12 1 -3
BITMAP
1F
70
60
C0
C0
C0
C0
62
3E
10
10
30
ENDCHAR

STARTCHAR Egrave
ENCODING 200
SWIDTH 583 0
DWIDTH 7 0
BBX 6 12 1 0
BITMAP
30
08
00
7C
60
60
60
F8
C0
C0
C0
FC
ENDCHAR

STARTCHAR Eacute
ENCODING 201
SWIDTH 583 0
DWIDTH 7 0
BBX 6 12 1 0
BITMAP
0C
10
00
7C
60
60
60
F8
C0
C0
C0
FC
ENDCHAR

STARTCHAR Ecircumflex
ENCODING 202
SWIDTH 583 0
DWIDTH 7 0
BBX 6 12 1 0
BITMAP
18
34
00
7C
60
60
60
F8
C0
C0
C0
FC
ENDCHAR

STARTCHAR Edieresis
ENCODING 203
SWIDTH 583 0
DWIDTH 7 0
BBX 6 11 1 0
BITMAP
28
00
7C
60
60
60
F8
C0
C0
C0
FC
ENDCHAR

STARTCHAR Igrave
ENCODING 204
SWIDTH 302 0
DWIDTH 4 0
BBX 3 12 1 0
BITMAP
C0
20
00
60
60
60
60
C0
C0
C0
C0
C0
ENDCHAR

STARTCHAR Iacute
ENCODING 205
SWIDTH 302 0
DWIDTH 4 0
BBX 4 12 1 0
BITMAP
30
40
00
60
60
60
60
C0
C0
C0
C0
C0
ENDCHAR

STARTCHAR Icircumflex
ENCODING 206
SWIDTH 302 0
DWIDTH 4 0
BBX 4 12 1 0
BITMAP
60
D0
00
60
60
60
60
C0
C0
C0
C0
C0
ENDCHAR

STARTCHAR Idieresis
ENCODING 207
SWIDTH 302 0
DWIDTH 4 0
BBX 4 11 1 0
BITMAP
50
00
60
60
60
60
C0
C0
C0
C0
C0
ENDCHAR

STARTCHAR Eth
ENCODING 208
SWIDTH 750 0
DWIDTH 9 0
BBX 8 9 0 0
BITMAP
7C
67
63
61
F9
61
63
C7
FE
ENDCHAR

STARTCHAR Ntilde
ENCODING 209
SWIDTH 781 0
DWIDTH 9 0
BBX 9 11 0 0
BITMAP
1E00
0000
6180
7180
7180
7B00
DF00
CF00
CF00
C700
C700
ENDCHAR

STARTCHAR Ograve
ENCODING 210
SWIDTH 833 0
DWIDTH 10 0
BBX 9 12 1 0
BITMAP
1800
0400
0000
1E00
6300
4180
C180
C180
C180
C300
6300
3C00
ENDCHAR

STARTCHAR Oacute
ENCODING 211
SWIDTH 833 0
DWIDTH 10 0
BBX 9 12 1 0
BITMAP
0600
0800
0000
1E00
6300
4180
C180
C180
C180
C300
6300
3C00
ENDCHAR

STARTCHAR Ocircumflex
ENCODING 212
SWIDTH 833 0
DWIDTH 10 0
BBX 9 12 1 0
BITMAP
0C00
1A00
0000
1E00
6300
4180
C180
C180
C180
C300
6300
3C00
ENDCHAR

STARTCHAR Otilde
ENCODING 213
SWIDTH 833 0
DWIDTH 10 0
BBX 9 11 1 0
BITMAP
1E00
0000
1E00
6300
4180
C180
C180
C180
C300
6300
3C00
ENDCHAR

STARTCHAR Odieresis
ENCODING 214
SWIDTH 833 0
DWIDTH 10 0
BBX 9 11 1 0
BITMAP
0A00
0000
1E00
6300
4180
C180
C180
C180
C300
6300
3C00
ENDCHAR

STARTCHAR multiply
ENCODING 215
SWIDTH 584 0
DWIDTH 7 0
BBX 6 6 1 2
BITMAP
48
DC
70
70
D8
4C
ENDCHAR

STARTCHAR Oslash
ENCODING 216
SWIDTH 833 0
DWIDTH 10 0
BBX 9 9 1 0
BITMAP
1F80
6300
4780
CD80
D980
F180
E300
6300
BC00
ENDCHAR

STARTCHAR Ugrave
ENCODING 217
SWIDTH 750 0
DWIDTH 9 0
BBX 8 12 1 0
BITMAP
18
04
00
63
C3
C3
C3
C3
C3
C6
C6
7C
ENDCHAR

STARTCHAR Uacute
ENCODING 218
SWIDTH 750 0
DWIDTH 9 0
BBX 8 12 1 0
BITMAP
0C
10
00
63
C3
C3
C3
C3
C3
C6
C6
7C
ENDCHAR

STARTCHAR Ucircumflex
ENCODING 219
SWIDTH 750 0
DWIDTH 9 0
BBX 8 12 1 0
BITMAP
18
34
00
63
C3
C3
C3
C3
C3
C6
C6
7C
ENDCHAR

STARTCHAR Udieresis
ENCODING 220
SWIDTH 750 0
DWIDTH 9 0
BBX 8 11 1 0
BITMAP
14
00
63
C3
C3
C3
C3
C3
C6
C6
7C
ENDCHAR

STARTCHAR Yacute
ENCODING 221
SWIDTH 563 0
DWIDTH 7 0
BBX 7 12 1 0
BITMAP
18
20
00
CE
CC
78
78
70
30
60
60
60
ENDCHAR

STARTCHAR Thorn
ENCODING 222
SWIDTH 583 0
DWIDTH 7 0
BBX 6 9 0 0
BITMAP
60
60
78
6C
E4
CC
F8
C0
C0
ENDCHAR

STARTCHAR germandbls
ENCODING 223
SWIDTH 552 0
DWIDTH 7 0
BBX 6 9 0 0
BITMAP
38
6C
6C
78
C8
CC
CC
C8
F8
ENDCHAR

STARTCHAR agrave
ENCODING 224
SWIDTH 552 0
DWIDTH 7 0
BBX 6 9 0 0
BITMAP
30
08
00
3C
4C
CC
CC
D8
78
ENDCHAR

STARTCHAR aacute
ENCODING 225
SWIDTH 552 0
DWIDTH 7 0
BBX 6 9 0 0
BITMAP
18
20
00
3C
4C
CC
CC
D8
78
ENDCHAR

STARTCHAR acircumflex
ENCODING 226
SWIDTH 552 0
DWIDTH 7 0
BBX 6 9 0 0
BITMAP
30
68
00
3C
4C
CC
CC
D8
78
ENDCHAR

STARTCHAR atilde
ENCODING 227
SWIDTH 552 0
DWIDTH 7 0
BBX 6 8 0 0
BITMAP
78
00
3C
4C
CC
CC
D8
78
ENDCHAR

STARTCHAR adieresis
ENCODING 228
SWIDTH 552 0
DWIDTH 7 0
BBX 6 8 0 0
BITMAP
28
00
3C
4C
CC
CC
D8
78
ENDCHAR

STARTCHAR aring
ENCODING 229
SWIDTH 552 0
DWIDTH 7 0
BBX 6 10 0 0
BITMAP
38
28
38
00
3C
4C
CC
CC
D8
78
ENDCHAR

STARTCHAR ae
ENCODING 230
SWIDTH 688 0
DWIDTH 8 0
BBX 8 6 0 0
BITMAP
7E
5B
7F
D8
D9
EE
ENDCHAR

STARTCHAR ccedilla
ENCODING 231
SWIDTH 469 0
DWIDTH 6 0
BBX 5 9 0 -3
BITMAP
38
40
C0
C0
C8
70
20
20
60
ENDCHAR

STARTCHAR egrave
ENCODING 232
SWIDTH 510 0
DWIDTH 6 0
BBX 5 9 0 0
BITMAP
60
10
00
78
C8
F8
C0
C8
78
ENDCHAR

STARTCHAR eacute
ENCODING 233
SWIDTH 510 0
DWIDTH 6 0
BBX 5 9 0 0
BITMAP
18
20
00
78
C8
F8
C0
C8
78
ENDCHAR

STARTCHAR ecircumflex
ENCODING 234
SWIDTH 510 0
DWIDTH 6 0
BBX 5 9 0 0
BITMAP
30
68
00
78
C8
F8
C0
C8
78
ENDCHAR

STARTCHAR edieresis
ENCODING 235
SWIDTH 510 0
DWIDTH 6 0
BBX 5 8 0 0
BITMAP
28
00
78
C8
F8
C0
C8
78
ENDCHAR

STARTCHAR igrave
ENCODING 236
SWIDTH 260 0
DWIDTH 3 0
BBX 3 9 0 0
BITMAP
C0
20
00
E0
C0
C0
C0
C0
C0
ENDCHAR

STARTCHAR iacute
ENCODING 237
SWIDTH 260 0
DWIDTH 3 0
BBX 4 9 0 0
BITMAP
30
40
00
E0
C0
C0
C0
C0
C0
ENDCHAR

STARTCHAR icircumflex
ENCODING 238
SWIDTH 260 0
DWIDTH 3 0
BBX 4 9 0 0
BITMAP
60
D0
00
E0
C0
C0
C0
C0
C0
ENDCHAR

STARTCHAR idieresis
ENCODING 239
SWIDTH 260 0
DWIDTH 3 0
BBX 3 8 0 0
BITMAP
A0
00
E0
C0
C0
C0
C0
C0
ENDCHAR

STARTCHAR eth
ENCODING 240
SWIDTH 552 0
DWIDTH 7 0
BBX 6 9 0 0
BITMAP
1C
38
0C
7C
4C
CC
CC
C8
70
ENDCHAR

STARTCHAR ntilde
ENCODING 241
SWIDTH 552 0
DWIDTH 7 0
BBX 6 8 0 0
BITMAP
3C
00
D8
EC
CC
CC
DC
D8
ENDCHAR

STARTCHAR ograve
ENCODING 242
SWIDTH 563 0
DWIDTH 7 0
BBX 6 9 0 0
BITMAP
30
08
00
78
CC
CC
CC
C8
70
ENDCHAR

STARTCHAR oacute
ENCODING 243
SWIDTH 563 0
DWIDTH 7 0
BBX 6 9 0 0
BITMAP
18
20
00
78
CC
CC
CC
C8
70
ENDCHAR

STARTCHAR ocircumflex
ENCODING 244
SWIDTH 563 0
DWIDTH 7 0
BBX 6 9 0 0
BITMAP
30
68
00
78
CC
CC
CC
C8
70
ENDCHAR

STARTCHAR otilde
ENCODING 245
SWIDTH 563 0
DWIDTH 7 0
BBX 6 8 0 0
BITMAP
3C
00
78
CC
CC
CC
C8
70
ENDCHAR

STARTCHAR odieresis
ENCODING 246
SWIDTH 563 0
DWIDTH 7 0
BBX 6 8 0 0
BITMAP
28
00
78
CC
CC
CC
C8
70
ENDCHAR

STARTCHAR divide
ENCODING 247
SWIDTH 584 0
DWIDTH 7 0
BBX 6 8 0 1
BITMAP
30
30
00
FC
FC
00
30
30
ENDCHAR

STARTCHAR oslash
ENCODING 248
SWIDTH 563 0
DWIDTH 7 0
BBX 6 6 0 0
BITMAP
7C
CC
DC
EC
C8
F0
ENDCHAR

STARTCHAR ugrave
ENCODING 249
SWIDTH 552 0
DWIDTH 7 0
BBX 6 9 1 0
BITMAP
60
10
00
CC
CC
DC
D8
D8
F8
ENDCHAR

STARTCHAR uacute
ENCODING 250
SWIDTH 552 0
DWIDTH 7 0
BBX 6 9 1 0
BITMAP
18
20
00
CC
CC
DC
D8
D8
F8
ENDCHAR

STARTCHAR ucircumflex
ENCODING 251
SWIDTH 552 0
DWIDTH 7 0
BBX 6 9 1 0
BITMAP
30
68
00
CC
CC
DC
D8
D8
F8
ENDCHAR

STARTCHAR udieresis
ENCODING 252
SWIDTH 552 0
DWIDTH 7 0
BBX 6 8 1 0
BITMAP
28
00
CC
CC
DC
D8
D8
F8
ENDCHAR

STARTCHAR yacute
ENCODING 253
SWIDTH 490 0
DWIDTH 6 0
BBX 6 12 0 -3
BITMAP
18
20
00
CC
D8
78
78
70
70
60
60
C0
ENDCHAR

STARTCHAR thorn
ENCODING 254
SWIDTH 583 0
DWIDTH 7 0
BBX 6 12 0 -3
BITMAP
60
60
60
78
6C
6C
EC
CC
F0
C0
C0
C0
ENDCHAR

STARTCHAR ydieresis
ENCODING 255
SWIDTH 490 0
DWIDTH 6 0
BBX 6 11 0 -3
BITMAP
28
00
CC
D8
78
78
70
70
60
60
C0
ENDCHAR
ENDFONT
